<?xml version="1.0" encoding="utf-8"?>
<!-- Generator: Adobe Illustrator 16.0.0, SVG Export Plug-In . SVG Version: 6.00 Build 0)  -->
<!DOCTYPE svg PUBLIC "-//W3C//DTD SVG 1.1//EN" "http://www.w3.org/Graphics/SVG/1.1/DTD/svg11.dtd">
<svg version="1.1" id="Layer_2" xmlns="http://www.w3.org/2000/svg" xmlns:xlink="http://www.w3.org/1999/xlink" x="0px" y="0px"
	 width="611.791px" height="112.608px" viewBox="0 0 611.791 112.608" enable-background="new 0 0 611.791 112.608"
	 xml:space="preserve">
<g>
	<path fill="#FFFFFF" d="M184.942,95.426l-37.36,0.04c-1.252,0-2.268-1.016-2.268-2.268l-0.027-90.761
		c0-1.252-1.015-2.268-2.268-2.268h-14.313c-1.252,0-2.268,1.015-2.268,2.268v105.826c0,1.252,1.015,2.268,2.268,2.268h8.688
		c0.178,0.045,0.362,0.076,0.554,0.076h46.993c1.252,0,2.268-1.015,2.268-2.268V97.693C187.21,96.44,186.195,95.426,184.942,95.426z
		"/>
	<path fill="#FFFFFF" d="M538.483,70.518V25.437c0-1.252,1.015-2.268,2.268-2.268h13.463c1.252,0,2.268,1.015,2.268,2.268v52.725
		v30.898c0,1.252-1.015,2.268-2.268,2.268h-5.962c0,0-1.813-0.277-2.59-2.479c-0.777-2.201-1.684-5.698-1.684-5.698
		s-0.907-4.145-3.367-1.425c-2.461,2.72-13.179,11.08-34.061,10.879c-33.271-0.321-31.445-33.265-31.445-40.229s0-47.271,0-47.271
		c0-1.252,1.015-2.268,2.268-2.268h13.463c1.252,0,2.268,1.015,2.268,2.268c0,0,0,42.474,0,48.2s-0.488,23.835,20.406,23.835
		C532.857,97.139,537.92,88.162,538.483,70.518z"/>
	<path fill="#FFFFFF" d="M582.145,31.906c-2.46,2.72-3.367-1.425-3.367-1.425s-0.906-3.497-1.684-5.698
		c-0.776-2.201-2.59-2.479-2.59-2.479h-5.962c-1.253,0-2.268,1.016-2.268,2.268l-0.168,84.255c0,1.252,1.015,2.268,2.268,2.268
		h13.463c1.252,0,2.268-1.016,2.268-2.268V56.103c0.601-4.158,3.034-16.708,16.543-18.397c4.952-0.619,7.584-0.155,7.584-0.155
		c2.321,0,3.56-0.31,3.56-2.941s-0.154-10.37-0.154-10.37s-0.156-3.405-3.251-3.25s-14.084,0.929-19.191,4.489
		S582.145,31.906,582.145,31.906z"/>
	<path fill="#FFFFFF" d="M266.552,29.615c-10.158-9.93-31.273-8.903-31.273-8.903c-40.746-1.256-39.034,28.077-39.034,28.077
		l-0.01,2.419c0,1.252,1.015,2.268,2.268,2.268h13.015c1.252,0,2.268-1.015,2.268-2.268l0.218-2.729c0,0,1.514-13.891,20.476-13.043
		c20.43,0.913,21.686,8.56,22.713,17.805c0,0,0.114,1.939-1.484,2.282s-36.408,2.854-50.219,8.903s-12.327,19.859-12.327,21.457
		s-0.681,24.781,35.268,25.566c20.887,0.456,31.387-11.414,31.387-11.414c0.913-0.913,1.826-1.712,2.739,0.457
		s1.826,9.701,4.68,9.93s5.479,0.114,5.479,0.114s2.854,0.115,2.854-2.511s-0.114-51.932-0.114-51.932
		S276.083,38.932,266.552,29.615z M257.192,73.443c0,0-0.114,2.282-0.57,5.82c-1.178,9.126-9.359,16.778-20.659,17.806
		s-23.283-1.599-23.854-12.555s20.43-11.87,23.74-12.327s14.82-1.673,18.832-1.94C256.394,70.133,257.42,71.047,257.192,73.443z"/>
	<path fill="#FFFFFF" d="M334.464,21.689c-20.98-0.259-28.232,8.807-28.232,8.807s-2.849,3.108-2.59-0.777
		s-0.204-26.615-0.204-26.615c0-1.252-1.016-2.268-2.268-2.268h-13.463c-1.252,0-2.268,1.015-2.268,2.268v105.825
		c0,1.252,1.015,2.268,2.268,2.268h5.962c0,0,1.813-0.277,2.59-2.479s1.684-5.698,1.684-5.698s0.907-4.145,3.367-1.425
		s13.209,12.045,34.06,10.879s35.873-14.115,35.614-45.975S355.444,21.948,334.464,21.689z M352.336,68.57
		c-0.131,5.827,1.694,29.256-25.384,28.751c-20.851-0.389-23.57-14.765-23.7-29.14c-0.161-17.875,3.755-31.6,25.383-31.211
		S352.724,51.346,352.336,68.57z"/>
	<path fill="#FFFFFF" d="M38.208,109.5c-0.661,0.15-1.203,0.647-1.591,1.123h9.826c-1.008-1.895-2.217-4.255-2.36-4.936
		C44.083,105.688,39.583,109.188,38.208,109.5z"/>
	<path fill="#FFFFFF" d="M99.208,84.938c-0.75,1.562-1.938,1.875-2.688,2s-1,0.562-1.875,1.625s-1.938,2.688-5.75,8.25
		s-15.25,3.438-21.625,2.125s-7.312-3.312-7.812-7.75s2.75-7.062,3.688-7.5s5.062-2.062,7.625-4.312s6.688-2.688,7.312-2.688
		s2.312-0.125,7.938-0.75S97.333,76.812,101.208,78c3.266,1.001,9.803,4.657,12.941,6.421V8.504c0-4.697-3.807-8.504-8.504-8.504
		h-8.713c3.113,2.628,7.808,7.875,8.598,13.13c0.985,6.555-6.34,8.739-6.94,8.953s-0.856,0.343-0.856,0.343
		c-2.185-4.541-0.214-6.512,0.685-7.839s-0.428-1.971-1.799-2.571s-1.842-1.199-2.056-1.928s-0.343-1.756-0.856-2.827
		s-1.5-1.242-2.399-1.328s-1.628-0.6-2.142-0.728S87.88,5.076,87.88,5.076l0.042,0.729c0,0-2.484-1.285-4.883-3.042
		C81.331,1.512,80.881,1.104,80.207,0h-3.785c0.207,1.007,0.554,1.582,0.876,2.034c0.428,0.6-0.728,2.228-1.842,2.57
		s-3.684-0.471-3.684-0.471c-3.642,0.985-3.513,0.385-7.839,1.028s-5.098,3.513-5.869,5.27s0.6,1.114-1.457,4.027
		s-6.469,3.855-8.268,3.812s-1.242-0.257-1.157,5.398s0.899,4.883,2.785,5.355s2.613-2.057,2.913-2.442s0.343-0.9-0.086-0.942
		c-2.091-0.207-3.341-0.643-3.941-1.2s0.257-1.671,1.242-2.356s3.943-2.271,4.8-2.656s3.341-1.2,4.456-1.414
		s1.285,0.771,1.542,1.285c0.223,0.447,0.086,0.942,1.071,0.814c5.833-0.761,7.111,0.171,7.497,0.128s0.899-0.471,0.985-1.2
		s-1.971-1.157-2.913-1.414s-6.34-0.343-6.34-0.343s-1.371-1.071-1.628-3.641s6.212-5.184,8.525-5.826s7.925-1.457,14.309-0.6
		s9.082,4.842,10.195,9.211s-2.271,5.74-2.785,5.783s-1.628,1.114-2.099,1.928s-1.971,1.928-3.042,2.57s-2.699,2.056-2.699,2.056
		s-0.043,1.071-1.371,1.585s-2.313-2.185-3.127-3.984s-1.542-2.57-2.228-3.984s-1.799-1.714-2.228-1.714s-0.557,0.729-0.557,1.885
		s-1.071,2.313-2.871,3.47s-5.441-0.814-5.869-0.985s-2.485-0.985-3.084-1.242s-0.814-0.643-1.328-1.243s-1.457,0.429-1.756,0.643
		s-0.728,0.6,0.043,1.585s3.213,1.799,4.37,2.142s2.442,1.885,3.127,2.442s1.414,1.071,1.885,0.771
		c3.188-2.028,7.068-2.571,7.711-2.571s3.341,0.043,2.014,4.156c-1.823,5.647-7.754,6.812-12.338,6.982s-6.94-0.985-7.197-0.985
		s-0.3,0.514-0.171,0.514s1.628,1.071,2.742,1.842s2.999,1.971,3.77,1.971s3.299-0.857,4.156-1.071s2.956-0.728,4.626-1.242
		s8.098-5.698,9.254-6.854s2.056-3.856,2.484-3.984s1.243,0.557,1.885,0.643s2.013-1.842,2.356-3.213s0.429-1.542,0.814-1.628
		s0.514,0.857,0.514,0.857s0.471,2.399,0.257,5.74s-0.514,4.198-1.499,7.026s-4.37,3.127-5.483,3.47S78.971,43.032,77,43.375
		s-2.999-0.729-4.327-1.328c-0.472-0.213-3.042-0.643-3.256,0.085c-0.922,3.133,4.626,4.841,5.526,5.055
		c5.876,1.4,14.051-1.414,14.479-4.927c0.646-5.294,1.242-5.912,1.928-6.683s2.527-0.128,2.527-0.128
		c0.685-0.685,3.898-3.042,3.898-3.042s1.028-0.514,0.514-1.328s-0.857-4.113,3.213-3.684s5.441,6.168,5.441,6.168
		s1.627,3.385,0.47,11.996S94.777,62.997,84.325,66.295s-15.422,2.913-16.707,2.913s-3.856-1.027-4.712-1.199
		s-3.042-1.628-3.77-1.928s-3.256-1.585-3.812-1.842s-2.528-1.5-3.685-2.313s-1.457-1.672-1.842-2.528s-2.484-2.527-2.742-2.741
		s0-0.558,0-0.558c2.399,1.028,18.592,3.299,19.877,3.342s7.154,0.214,7.925,0.214s2.142,0.472,2.185-0.514
		s-4.498-1.671-5.012-1.714s-2.784-0.086-4.455-0.3s-5.698-6.469-6.254-7.283s-0.771-0.6-1.799-1.114s-4.626-3.298-5.055-3.77
		s0.343-2.27-0.085-2.742S52.578,42.513,51.5,43c-2.557,1.156-3.5-0.167-3.5-0.167l-3.5-3.667L43.667,41
		c0,0,8.833,7.167,11.333,9.167s0.667,2.667,0.667,2.667s-1.833,2-2.5,2.167s-6-0.833-10.167-2s-5.5-2.5-9.667-6.167
		S27.5,33.667,28,31.833s0.667-4.667,0.333-5.5s-1-3.667,0.5-3.667S31.5,26,35,30s7.333,5.333,8.833,4.5s-0.5-3.333-1.333-4.833
		s-0.667-2-4-6.167s-1-7.333-0.333-8.833s2.667-4.333,3.167-9c0.268-2.496,1.255-4.18,2.698-5.667H8.504C3.807,0,0,3.807,0,8.504
		v30.237c2.324,0.775,7.485,2.548,8.41,3.307c1.2,0.985,11.84,9.022,11.438,23.434c-0.043,1.542,0.484,2.037,1.156,2.784
		c0.386,0.429,4.113,4.027,3.47,6.255c-1.713-2.528-3.428-3.856-3.941-4.113s-1.071-0.557-1.457,0.386s-0.728,3.471-5.826,2.742
		C8.579,72.867,4.731,72.075,0,65.651v36.468c0,4.696,3.807,8.504,8.504,8.504h6.783c0.747-1.522,1.168-2.507,1.733-3.811
		c0.812-1.875,3.438-8.562,4.688-10.688s3.062-4.938,3.062-4.938s-0.562-4.438-0.438-7s1.5-8.25,1.5-8.25S26.333,75,26.083,74
		s-0.625-2.062-0.375-3.875s1.062-4.625,2.5-5.938s2.438-2.062,3.25-2s2.062,1.25,3.688,5.062c0,0-0.875,0.125-1.562-0.062
		s-0.25,0.375-0.125,0.562s1.75,1.438,0.938,3s-4.708,6.265-3.875,7.375c0.562,0.75,0.875,0.062,1.75-0.875s2.812-3.188,3.125-3.062
		s-0.625,3.375-4,6.875c0,0,0.938,0.438,0,2.188s-2.312,3.562-2.5,3.938s-0.188,1.25,0.375,0.75s5.875-4.75,11.062-4.75
		c3.75,0,4.068,1.159,4.75,1.5c0.625,0.312,1.562,1.375,1.75,1.938s0.438,1,1.375,1.312s4,1.062,4.438,5.062
		c0,0,1.625,2-0.375,5.062c0,0,15.662-2.111,22.304,12.561h31.071c4.697,0,8.504-3.808,8.504-8.504V85.721
		c-2.653-1.569-8.401-2.283-9.191-2.283C104.021,83.438,99.958,83.375,99.208,84.938z M30.958,49.422
		c-0.5,0.125-1.073-0.115-1.859,0.672c-0.25,0.25-0.562,0.797-0.578,1.344c-0.046,1.625-3.562-0.062-4-0.2
		c-1.121-0.352-2.875-1.425-6.75-5.8s-5.25-13.375-5.375-16.938s1.438-10.062,6.062-16.188s12.688-7.188,13.75-7.188
		s2.062,0.125,2.125,0.75S34.208,6.5,34.208,7.25c0,0,0.562,1.375,0.375,3.562c-0.428,4.991-5.188,8.875-7.5,10.812
		s-2.062,4.5-2,7.062s2.062,11.062,2.5,12.5s3.266,6.391,3.703,7.016S31.458,49.297,30.958,49.422z M43.368,75.634
		c-2.528-1.8-3.984-5.184-5.526-9.553s-2.441-7.411-3.127-9.382s-1.157-2.142-1.242-2.656s0.085-0.814,0.3-1.028
		c0,0,3.77,0.6,6.897,2.013c3.127,1.413,3.042,1.671,5.74,3.47s3.77,5.526,4.499,6.897s3.223,2.418,3.565,2.589
		s1.469,0.984,1.469,0.984c10.881,4.155,18.185,4.48,18.527,4.566s0.514,0.386,0.514,0.386c-1.028,1.585-10.709,1.885-10.709,1.885
		s-3.342-0.086-8.825,1.499S45.896,77.434,43.368,75.634z"/>
	<path fill="#FFFFFF" d="M23.146,106c0.062-1,0-4.375-0.625-5.125c0,0-0.375,2.062-0.688,2.75c-0.211,0.464-1.984,4.45-3.117,6.998
		h5.7c-0.164-0.475-0.365-1.031-0.52-1.373C23.583,108.562,23.083,107,23.146,106z"/>
	<g>
		<path fill="#FFFFFF" d="M421.921,112.548c-34.925,0-43.817-21.898-43.817-45.536c0-23.418,9.124-45.326,44.028-45.326
			c34.48,0,44.011,21.908,44.011,45.326C466.143,90.86,456.612,112.548,421.921,112.548z M422.132,36.871
			c-20.595,0-25.146,13.438-25.146,30.141c0,16.913,4.551,30.36,24.935,30.36c20.805,0,25.357-13.233,25.357-30.36
			C447.278,50.529,443.165,36.871,422.132,36.871z"/>
	</g>
</g>
</svg>
